<?xml version="1.0" encoding="UTF-8"?>
<!DOCTYPE svg PUBLIC "-//W3C//DTD SVG 1.1//EN" "http://www.w3.org/Graphics/SVG/1.1/DTD/svg11.dtd">
<!-- Creator: CorelDRAW X7 -->
<svg xmlns="http://www.w3.org/2000/svg" xml:space="preserve" width="2598px" height="1122px" version="1.1" style="shape-rendering:geometricPrecision; text-rendering:geometricPrecision; image-rendering:optimizeQuality; fill-rule:evenodd; clip-rule:evenodd"
viewBox="0 0 2598 1122"
 xmlns:xlink="http://www.w3.org/1999/xlink">
 <defs>
  <style type="text/css">
   <![CDATA[
    .str0 {stroke:#96E619;stroke-width:7.36769;stroke-linecap:round;stroke-linejoin:round}
    .fil7 {fill:none}
    .fil2 {fill:none;fill-rule:nonzero}
    .fil6 {fill:#00E6FA}
    .fil0 {fill:#8C008C}
    .fil4 {fill:#A53692}
    .fil3 {fill:#FEFEFE}
    .fil5 {fill:white}
    .fil1 {fill:#96E619;fill-rule:nonzero}
   ]]>
  </style>
 </defs>
 <g id="Capa_x0020_1">
  <metadata id="CorelCorpID_0Corel-Layer"/>
  <g id="_378122816">
   <path class="fil0" d="M744 561c40,31 43,20 68,66 25,47 38,97 38,153l0 3c0,44 -6,84 -25,125 -16,41 -41,75 -69,103 -31,28 -28,61 -65,77 -41,15 -56,18 -100,18l-83 -2 -166 0 -54 0 -75 0 -190 0 -12 -153 0 -11 0 -3 0 -281 0 -58 0 -132 43 -429 414 7c44,0 84,6 125,25 39,15 69,-8 97,19 1,0 0,12 1,13l8 -5c6,6 25,11 30,21 21,26 23,94 35,123 19,41 25,81 25,125l0 3c0,38 -3,72 -15,103 -13,31 -12,65 -30,90l0 0z"/>
   <path class="fil1" d="M775 522c41,31 75,69 100,115 25,47 37,97 37,153l0 3c0,44 -6,84 -25,125 -15,41 -40,75 -68,103 -31,28 -66,53 -103,69 -41,15 -81,24 -125,24l-315 0 -75 0 -190 0 0 -174c16,-6 53,-44 69,-56 6,-7 12,-13 21,-19l-34 218c6,-9 22,-34 28,-46 10,-16 22,-32 31,-47 10,-16 19,-31 28,-47 10,-16 19,-31 29,-44l-13 38c41,0 91,6 131,3l0 -31c9,40 19,99 56,115 6,3 13,3 19,6l0 0 -6 0 -7 3 -49 -3c-25,-3 -47,0 -72,0 -6,0 -16,7 -16,16l0 28c0,9 10,16 16,16l206 0 0 0c0,6 0,9 0,15 6,-3 12,-9 15,-15l3 0c3,-7 7,-13 7,-22 0,-3 0,-16 -4,-16 -3,-12 19,0 19,22 0,3 0,9 0,16l3 0c0,6 -3,12 -3,21 6,-6 13,-12 19,-21l153 0c9,0 40,-10 37,-19l-9 -25c0,-6 -19,-16 -28,-16l-85 -3c-6,0 -43,3 -49,3 -7,0 -10,0 -16,0l0 0 0 0 -3 0 0 0c-6,-9 -13,-15 -19,-18 -25,-19 -93,-32 -47,-82 19,-21 63,-40 91,-62 9,-6 15,-9 22,-15 9,-7 12,-13 21,-19l38 -38c3,-3 59,-84 65,-93 25,-53 41,-116 41,-175 3,-25 0,-81 -13,-96l-18 34c6,-22 15,-41 22,-66 15,-65 12,-152 -19,-212l-9 -3c24,-12 37,-34 40,-65 -22,15 -31,18 -62,12 -44,-9 -63,-56 -162,-56 -94,0 -110,47 -160,56 -34,6 -37,0 -56,-12 7,62 44,62 60,71l-32 -6c-3,13 -12,25 -15,41 -19,43 -22,93 -16,143 6,0 22,-12 28,-15 -3,3 -6,6 -12,12 -3,6 -6,9 -13,16 -56,62 -115,152 -159,227 -43,84 -93,215 -112,328l0 -281 0 -190 0 -459 502 0c44,0 84,7 125,25 40,16 75,41 103,69 28,31 53,65 68,103 19,40 25,81 25,125l0 3c0,37 -3,71 -15,103 -13,31 -25,62 -44,87l0 0z"/>
   <path class="fil2" d="M363 1030c7,3 28,7 38,7 9,3 19,6 25,12 18,19 18,31 22,50m3 6c0,0 0,3 3,3 3,-6 19,-15 19,-40 0,-3 0,-16 -4,-16 -3,-12 19,0 19,22 0,3 -3,28 -3,31 0,0 0,9 3,6m22 -31c3,-3 6,-9 6,-12 3,-28 -6,-41 -9,-41"/>
   <path class="fil3" d="M420 728l-7 6c-6,3 -34,16 -40,19 -6,3 -16,6 -19,12 -9,0 -165,75 -224,81 21,-9 171,-75 177,-84 7,-3 10,-3 13,-6 3,0 3,0 6,-3 3,-3 0,0 3,-3 13,-4 87,-47 103,-57 44,-28 97,-68 115,-121 19,-44 4,-87 -34,-112 -25,-19 -31,-13 -59,-19 115,-16 178,125 50,231l-19 15c-28,22 -37,22 -65,41l0 0z"/>
   <path class="fil4" d="M410 207c34,3 63,34 56,72 -6,34 -37,59 -78,53 -84,-13 -68,-138 22,-125l0 0z"/>
   <path class="fil5" d="M622 210c88,16 60,137 -28,119 -78,-19 -56,-135 28,-119z"/>
   <path class="fil3" d="M407 219c25,7 50,29 44,60 -3,25 -28,43 -60,37 -65,-9 -53,-106 16,-97l0 0zm25 32c16,34 -19,65 -53,46 -31,-15 -19,-68 31,-62 -3,6 -9,16 0,22 10,6 16,-3 22,-6z"/>
   <path class="fil3" d="M507 394c-6,-6 -3,-3 -6,-9 -13,-22 -38,-81 3,-84 50,0 12,74 3,93z"/>
   <path class="fil1" d="M1676 391l0 221c16,-15 35,-28 56,-34 22,-9 44,-16 69,-16 125,0 187,75 187,222l0 302 -156 0 0 -290c0,-31 -6,-53 -18,-68 -16,-16 -35,-22 -60,-22 -25,0 -43,6 -56,22 -15,15 -22,37 -22,68l0 290 -156 0 0 -695 156 0 0 0zm624 711c-50,0 -97,-12 -140,-37 -44,-22 -81,-53 -106,-94 -28,-44 -41,-87 -41,-140 0,-38 10,-72 25,-106 16,-35 34,-63 62,-85 29,-24 57,-43 91,-59 37,-12 72,-19 109,-19 37,0 75,7 109,19 35,13 66,31 94,56 25,25 47,56 62,88 16,34 22,68 22,106 0,40 -6,75 -22,106 -15,34 -34,62 -62,87 -28,25 -59,44 -94,56 -34,16 -72,22 -109,22l0 0zm-131 -271c0,34 13,65 41,90 25,25 56,38 90,38 37,0 66,-13 94,-38 25,-25 37,-56 37,-90 0,-22 -6,-44 -19,-63 -9,-18 -28,-34 -46,-46 -19,-10 -41,-16 -66,-16 -22,0 -44,6 -62,16 -22,12 -38,28 -50,46 -13,19 -19,41 -19,63z"/>
   <path class="fil6" d="M937 531l59 534 128 -16 -6 -41c22,16 44,29 72,35 25,9 53,9 81,6 34,-3 65,-12 93,-28 29,-16 50,-37 69,-62 16,-25 28,-53 38,-85 6,-34 9,-65 6,-99l-28 -275 0 47 -128 -3 28 243c3,34 -6,62 -28,90 -22,29 -50,44 -84,47 -35,3 -66,-6 -94,-28 -25,-22 -40,-50 -44,-84l-31 -296 -131 15 0 0zm509 -34l0 -22 -128 16 3 40 125 -34z"/>
   <path class="fil3" d="M416 260c-6,0 -12,-6 -12,-12 0,-7 6,-13 12,-13 10,0 16,6 16,13 0,6 -6,12 -16,12z"/>
   <path class="fil4" d="M619 207c34,3 66,34 56,72 -3,34 -37,59 -81,53 -87,-13 -68,-138 25,-125l0 0z"/>
   <path class="fil3" d="M613 219c25,7 50,29 44,60 -4,25 -29,43 -60,37 -65,-9 -53,-106 16,-97l0 0zm25 32c15,34 -19,65 -53,46 -31,-15 -19,-68 34,-62 -3,6 -12,16 -3,22 12,6 16,-3 22,-6l0 0z"/>
   <path class="fil3" d="M622 260c-6,0 -12,-6 -12,-12 0,-7 6,-13 12,-13 10,0 16,6 16,13 0,6 -6,12 -16,12z"/>
   <path class="fil7 str0" d="M363 1030c7,3 28,7 38,7 9,3 19,6 25,12 22,22 15,37 28,59 3,-6 19,-15 19,-40 0,-3 0,-16 -4,-16 -3,-12 19,0 19,22 0,3 -3,28 -3,31 0,0 0,9 3,6 6,-12 25,-31 28,-43 3,-28 -6,-41 -9,-41"/>
  </g>
 </g>
</svg>
