<?xml version="1.0" encoding="UTF-8"?>
<!DOCTYPE svg PUBLIC "-//W3C//DTD SVG 1.1//EN" "http://www.w3.org/Graphics/SVG/1.1/DTD/svg11.dtd">
<!-- Creator: CorelDRAW X7 -->
<svg xmlns="http://www.w3.org/2000/svg" xml:space="preserve" width="1004px" height="531px" version="1.1" style="shape-rendering:geometricPrecision; text-rendering:geometricPrecision; image-rendering:optimizeQuality; fill-rule:evenodd; clip-rule:evenodd"
viewBox="0 0 1004 532"
 xmlns:xlink="http://www.w3.org/1999/xlink">
 <defs>
  <style type="text/css">
   <![CDATA[
    .str0 {stroke:#A8CF45;stroke-width:2.36235;stroke-linecap:round;stroke-linejoin:round}
    .fil8 {fill:none}
    .fil3 {fill:none;fill-rule:nonzero}
    .fil4 {fill:#FEFEFE}
    .fil5 {fill:#A53692}
    .fil7 {fill:#00E6FA}
    .fil1 {fill:#8C008C}
    .fil0 {fill:#96E619}
    .fil6 {fill:white}
    .fil9 {fill:#FEFEFE;fill-rule:nonzero}
    .fil2 {fill:#96E619;fill-rule:nonzero}
   ]]>
  </style>
 </defs>
 <g id="Capa_x0020_1">
  <metadata id="CorelCorpID_0Corel-Layer"/>
  <g id="_589118528">
   <path class="fil0" d="M36 64l909 -47c12,0 23,9 23,22l21 405c1,12 -9,23 -21,24l-909 46c-12,1 -23,-9 -23,-21l-21 -405c-1,-13 9,-23 21,-24z"/>
   <path class="fil1" d="M60 47l884 0c13,0 22,9 22,21l0 395c0,12 -9,22 -22,22l-884 0c-13,0 -22,-10 -22,-22l0 -395c0,-12 9,-21 22,-21z"/>
   <path class="fil2" d="M344 236c13,10 24,22 32,37 8,15 12,31 12,49l0 1c0,14 -2,27 -8,40 -5,13 -13,24 -22,33 -10,9 -21,17 -33,22 -13,5 -26,8 -40,8l-101 0 -24 0 -61 0 0 -56c5,-2 17,-14 22,-18 2,-2 4,-4 7,-6l-11 70c2,-3 7,-11 9,-15 3,-5 7,-10 10,-15 3,-5 6,-10 9,-15 3,-5 6,-10 9,-14l-4 12c13,0 29,2 42,1l0 -10c3,13 6,32 18,37 2,1 4,1 6,2l0 0 -2 0 -2 1 -16 -1c-8,-1 -15,0 -23,0 -2,0 -5,2 -5,5l0 9c0,3 3,5 5,5l66 0 0 0c0,2 0,3 0,5 2,-1 4,-3 5,-5l1 0c1,-2 2,-4 2,-7 0,-1 0,-5 -1,-5 -1,-4 6,0 6,7 0,1 0,3 0,5l1 0c0,2 -1,4 -1,7 2,-2 4,-4 6,-7l49 0c3,0 13,-3 12,-6l-3 -8c0,-2 -6,-5 -9,-5l-27 -1c-2,0 -14,1 -16,1 -2,0 -3,0 -5,0l0 0 0 0 -1 0 0 0c-2,-3 -4,-5 -6,-6 -8,-6 -30,-10 -15,-26 6,-7 20,-13 29,-20 3,-2 5,-3 7,-5 3,-2 4,-4 7,-6l12 -12c1,-1 19,-27 21,-30 8,-17 13,-37 13,-56 1,-8 0,-26 -4,-31l-6 11c2,-7 5,-13 7,-21 5,-21 4,-49 -6,-68l-3 -1c8,-4 12,-11 13,-21 -7,5 -10,6 -20,4 -14,-3 -20,-18 -52,-18 -30,0 -35,15 -51,18 -11,2 -12,0 -18,-4 2,20 14,20 19,23l-10 -2c-1,4 -4,8 -5,13 -6,14 -7,30 -5,46 2,0 7,-4 9,-5 -1,1 -2,2 -4,4 -1,2 -2,3 -4,5 -18,20 -37,49 -51,73 -14,27 -30,69 -36,105l0 -90 0 -61 0 -147 161 0c14,0 27,2 40,8 13,5 24,13 33,22 9,10 17,21 22,33 6,13 8,26 8,40l0 1c0,12 -1,23 -5,33 -4,10 -8,20 -14,28z"/>
   <path class="fil3" d="M212 399c2,1 9,2 12,2 3,1 6,2 8,4 6,6 6,10 7,16m1 2c0,0 0,1 1,1 1,-2 6,-5 6,-13 0,-1 0,-5 -1,-5 -1,-4 6,0 6,7 0,1 -1,9 -1,10 0,0 0,3 1,2m7 -10c1,-1 2,-3 2,-4 1,-9 -2,-13 -3,-13"/>
   <path class="fil4" d="M230 302l-2 2c-2,1 -11,5 -13,6 -2,1 -5,2 -6,4 -3,0 -53,24 -72,26 7,-3 55,-24 57,-27 2,-1 3,-1 4,-2 1,0 1,0 2,-1 1,-1 0,0 1,-1 4,-1 28,-15 33,-18 14,-9 31,-22 37,-39 6,-14 1,-28 -11,-36 -8,-6 -10,-4 -19,-6 37,-5 57,40 16,74l-6 5c-9,7 -12,7 -21,13z"/>
   <path class="fil5" d="M227 135c11,1 20,11 18,23 -2,11 -12,19 -25,17 -27,-4 -22,-44 7,-40z"/>
   <path class="fil6" d="M295 136c28,5 19,44 -9,38 -25,-6 -18,-43 9,-38z"/>
   <path class="fil4" d="M226 139c8,2 16,9 14,19 -1,8 -9,14 -19,12 -21,-3 -17,-34 5,-31zm8 10c5,11 -6,21 -17,15 -10,-5 -6,-22 10,-20 -1,2 -3,5 0,7 3,2 5,-1 7,-2z"/>
   <path class="fil4" d="M258 195c-2,-2 -1,-1 -2,-3 -4,-7 -12,-26 1,-27 16,0 4,24 1,30z"/>
   <path class="fil2" d="M633 194l0 71c5,-5 11,-9 18,-11 7,-3 14,-5 22,-5 40,0 60,24 60,71l0 97 -50 0 0 -93c0,-10 -2,-17 -6,-22 -5,-5 -11,-7 -19,-7 -8,0 -14,2 -18,7 -5,5 -7,12 -7,22l0 93 -50 0 0 -223 50 0zm200 228c-16,0 -31,-4 -45,-12 -14,-7 -26,-17 -34,-30 -9,-14 -13,-28 -13,-45 0,-12 3,-23 8,-34 5,-11 11,-20 20,-27 9,-8 18,-14 29,-19 12,-4 23,-6 35,-6 12,0 24,2 35,6 11,4 21,10 30,18 8,8 15,18 20,28 5,11 7,22 7,34 0,13 -2,24 -7,34 -5,11 -11,20 -20,28 -9,8 -19,14 -30,18 -11,5 -23,7 -35,7zm-42 -87c0,11 4,21 13,29 8,8 18,12 29,12 12,0 21,-4 30,-12 8,-8 12,-18 12,-29 0,-7 -2,-14 -6,-20 -3,-6 -9,-11 -15,-15 -6,-3 -13,-5 -21,-5 -7,0 -14,2 -20,5 -7,4 -12,9 -16,15 -4,6 -6,13 -6,20z"/>
   <path class="fil7" d="M396 239l19 171 41 -5 -2 -13c7,5 14,9 23,11 8,3 17,3 26,2 11,-1 21,-4 30,-9 9,-5 16,-12 22,-20 5,-8 9,-17 12,-27 2,-11 3,-21 2,-32l-9 -88 0 15 -41 -1 9 78c1,11 -2,20 -9,29 -7,9 -16,14 -27,15 -11,1 -21,-2 -30,-9 -8,-7 -13,-16 -14,-27l-10 -95 -42 5zm163 -11l0 -7 -41 5 1 13 40 -11z"/>
   <path class="fil4" d="M229 152c-2,0 -4,-2 -4,-4 0,-2 2,-4 4,-4 3,0 5,2 5,4 0,2 -2,4 -5,4z"/>
   <path class="fil5" d="M294 135c11,1 21,11 18,23 -1,11 -12,19 -26,17 -28,-4 -22,-44 8,-40z"/>
   <path class="fil4" d="M292 139c8,2 16,9 14,19 -1,8 -9,14 -19,12 -21,-3 -17,-34 5,-31zm8 10c5,11 -6,21 -17,15 -10,-5 -6,-22 11,-20 -1,2 -4,5 -1,7 4,2 5,-1 7,-2z"/>
   <path class="fil4" d="M295 152c-2,0 -4,-2 -4,-4 0,-2 2,-4 4,-4 3,0 5,2 5,4 0,2 -2,4 -5,4z"/>
   <path class="fil8 str0" d="M212 399c2,1 9,2 12,2 3,1 6,2 8,4 7,7 5,12 9,19 1,-2 6,-5 6,-13 0,-1 0,-5 -1,-5 -1,-4 6,0 6,7 0,1 -1,9 -1,10 0,0 0,3 1,2 2,-4 8,-10 9,-14 1,-9 -2,-13 -3,-13"/>
   <path class="fil9" d="M492 471l0 -39 19 0c5,0 9,1 11,3 2,2 3,5 3,10l0 13c0,5 -1,8 -3,10 -2,2 -6,3 -11,3l-19 0zm5 -4l14 0c3,0 6,0 7,-2 1,-1 2,-3 2,-7l0 -13c0,-3 -1,-6 -2,-7 -1,-1 -4,-2 -7,-2l-14 0 0 31zm36 4l0 -39 27 0 0 4 -23 0 0 13 22 0 0 4 -22 0 0 14 23 0 0 4 -27 0zm33 -13l4 0 0 1c0,2 0,4 1,5 0,1 1,2 2,3 0,0 1,0 2,0 2,0 4,1 9,1 2,0 3,-1 5,-1 1,0 2,-1 2,-1 1,-1 1,-1 1,-2 0,-1 0,-2 0,-4 0,-2 0,-4 -1,-5 0,-1 -1,-1 -3,-1l-12 -1c-4,-1 -6,-1 -7,-3 -2,-1 -3,-4 -3,-8 0,-2 1,-4 1,-5 1,-1 1,-3 2,-4 1,0 2,-1 4,-1 1,0 4,0 7,0l2 0c4,0 6,0 8,0 2,1 3,1 4,2 1,1 1,2 2,3 0,1 0,2 0,4 0,1 0,1 0,1 0,1 0,1 0,1l-4 0 0 -1c0,-1 0,-2 0,-3 -1,-1 -1,-2 -1,-2 -1,0 -2,-1 -3,-1 -1,0 -4,0 -8,0 -4,0 -7,0 -8,1 -1,1 -1,3 -1,5 0,3 0,4 1,5 1,1 2,1 4,2l12 1c3,0 6,1 7,2 1,2 2,4 2,8 0,2 0,4 -1,5 0,2 -1,3 -1,4 -1,1 -3,2 -4,2 -2,0 -5,1 -9,1l-2 0c-3,0 -6,-1 -8,-1 -1,0 -2,-1 -3,-2 -1,-1 -2,-2 -2,-3 -1,-2 -1,-4 -1,-6l0 -2zm39 13l0 -39 5 0 0 39 -5 0zm14 0l0 -39 7 0 21 35 0 -35 4 0 0 39 -7 0 -21 -35 0 35 -4 0zm40 -26c0,-5 1,-9 3,-10 2,-2 6,-3 11,-3l5 0c5,0 8,0 11,2 2,2 3,4 3,8l0 1 -4 0 0 0c0,-3 -1,-5 -2,-6 -2,-1 -4,-1 -8,-1l-4 0c-2,0 -4,0 -5,0 -2,0 -3,1 -3,2 -1,0 -2,1 -2,2 0,1 0,3 0,6l0 11c0,3 0,5 0,6 0,1 1,2 2,3 0,0 1,1 3,1 1,0 3,0 5,0l4 0c2,0 4,0 5,0 1,0 2,-1 3,-1 0,-1 1,-2 1,-3 1,-1 1,-3 1,-5l0 -2 -11 0 0 -4 15 0 0 6c0,5 -1,9 -3,11 -2,2 -6,3 -11,3l-5 0c-5,0 -9,-1 -11,-3 -2,-2 -3,-6 -3,-11l0 -13zm59 26l0 -39 4 0 0 17 23 0 0 -17 4 0 0 39 -4 0 0 -18 -23 0 0 18 -4 0zm57 -35l-2 0c-3,0 -5,0 -6,0 -1,0 -2,1 -3,2 -1,0 -1,1 -2,2 0,1 0,3 0,6l0 11c0,3 0,5 0,6 1,1 1,2 2,3 1,0 2,1 3,1 1,0 3,0 6,0l2 0c3,0 5,0 6,0 1,0 2,-1 3,-1 1,-1 1,-2 1,-3 1,-1 1,-3 1,-6l0 -11c0,-3 0,-5 -1,-6 0,-1 0,-2 -1,-2 -1,-1 -2,-2 -3,-2 -1,0 -3,0 -6,0zm-18 9c0,-5 1,-9 3,-10 3,-2 6,-3 11,-3l5 0c6,0 9,1 11,2 2,2 3,6 3,11l0 13c0,5 -1,9 -3,11 -2,2 -5,3 -11,3l-5 0c-5,0 -8,-1 -11,-3 -2,-2 -3,-6 -3,-11l0 -13zm41 -13l5 0 0 26c0,2 0,4 0,5 0,1 1,2 1,2 1,1 2,1 3,2 1,0 2,0 5,0l4 0c2,0 4,0 5,0 1,-1 2,-1 3,-2 0,0 1,-1 1,-2 0,-1 0,-3 0,-5l0 -26 5 0 0 26c0,5 -1,9 -3,11 -2,2 -6,3 -11,3l-4 0c-5,0 -9,-1 -11,-3 -2,-2 -3,-6 -3,-11l0 -26zm40 26l4 0 0 1c0,2 0,4 1,5 0,1 0,2 1,3 1,0 2,0 3,0 1,0 4,1 8,1 2,0 4,-1 5,-1 2,0 3,-1 3,-1 0,-1 1,-1 1,-2 0,-1 0,-2 0,-4 0,-2 0,-4 -1,-5 0,-1 -2,-1 -3,-1l-12 -1c-4,-1 -6,-1 -8,-3 -1,-1 -2,-4 -2,-8 0,-2 0,-4 1,-5 0,-1 1,-3 2,-4 1,0 2,-1 3,-1 2,0 4,0 8,0l1 0c4,0 7,0 9,0 1,1 3,1 4,2 1,1 1,2 1,3 1,1 1,2 1,4 0,1 0,1 0,1 0,1 0,1 0,1l-4 0 0 -1c0,-1 0,-2 -1,-3 0,-1 0,-2 0,-2 -1,0 -2,-1 -3,-1 -2,0 -4,0 -8,0 -4,0 -7,0 -8,1 -1,1 -1,3 -1,5 0,3 0,4 1,5 0,1 2,1 4,2l12 1c3,0 5,1 7,2 1,2 1,4 1,8 0,2 0,4 0,5 0,2 -1,3 -2,4 -1,1 -2,2 -3,2 -2,0 -5,1 -9,1l-2 0c-4,0 -6,-1 -8,-1 -1,0 -3,-1 -4,-2 0,-1 -1,-2 -2,-3 0,-2 0,-4 0,-6l0 -2zm39 13l0 -39 27 0 0 4 -23 0 0 13 23 0 0 4 -23 0 0 14 23 0 0 4 -27 0z"/>
  </g>
 </g>
</svg>
